<svg width="200" height="23" viewBox="0 0 200 23" xmlns="http://www.w3.org/2000/svg" xmlns:xlink="http://www.w3.org/1999/xlink">
    <path id="GEOGEMS" fill="#ffffff" fill-rule="evenodd" stroke="none" d="M 173.778824 2.434269 L 173.371765 5.072083 C 171.720917 4.499531 170.273605 4.213259 169.029816 4.213259 C 168.1931 4.213259 167.460968 4.333391 166.833405 4.573658 C 166.205856 4.813925 165.719666 5.151316 165.374786 5.585842 C 165.029922 6.020367 164.857468 6.529009 164.857468 7.111785 C 164.857468 8.021732 165.210831 8.716963 165.917526 9.197496 C 166.624222 9.678031 167.867996 10.334921 169.64888 11.168187 C 171.429779 12.001453 172.76683 12.844932 173.66011 13.698647 C 174.55336 14.552361 175 15.684666 175 17.095596 C 175 18.322491 174.672104 19.421568 174.016281 20.39286 C 173.360458 21.364153 172.430466 22.110502 171.226227 22.631933 C 170.022018 23.153364 168.63974 23.414076 167.07933 23.414076 C 165.236252 23.414076 163.478012 23.138027 161.80455 22.585924 L 162.143768 19.76408 C 163.851151 20.500217 165.366302 20.86828 166.68924 20.86828 C 167.627747 20.86828 168.461639 20.725143 169.190948 20.438869 C 169.920258 20.152594 170.479965 19.741077 170.870056 19.204311 C 171.260162 18.667545 171.455215 18.036215 171.455215 17.310301 C 171.455215 16.267441 171.065109 15.477638 170.284912 14.940871 C 169.504715 14.404105 168.266602 13.767662 166.570511 13.031526 C 164.874435 12.295388 163.591095 11.531146 162.720428 10.738776 C 161.849777 9.946406 161.414459 8.829437 161.414459 7.387835 C 161.414459 6.263182 161.716919 5.2689 162.321854 4.404961 C 162.926788 3.541021 163.786118 2.868795 164.899887 2.388262 C 166.013641 1.907728 167.282867 1.667463 168.707565 1.667463 C 170.505417 1.667463 172.195816 1.923063 173.778824 2.434269 Z M 157.365723 2.050867 L 157.365723 23 L 154.421188 23 L 154.421188 11.03783 C 154.431412 10.39371 154.441635 9.701036 154.451859 8.959786 C 154.462082 8.218537 154.472305 7.530975 154.482529 6.897079 C 154.492752 6.263184 154.500427 5.739204 154.505539 5.325127 C 154.510651 4.911051 154.513199 4.27972 154.513199 3.431118 C 154.308716 4.136581 154.027557 5.0184 153.669724 6.076597 C 153.311874 7.134794 152.941254 8.180196 152.557846 9.212832 C 152.174454 10.245469 151.727142 11.446787 151.215942 12.816819 L 147.259232 23 L 144.360703 23 L 140.403976 12.816819 C 139.810989 11.262753 139.194992 9.647365 138.555984 7.970608 C 137.916977 6.29385 137.403214 4.780703 137.014694 3.431118 C 137.014694 3.574255 137.004471 3.681606 136.984024 3.753176 C 136.984024 3.845192 136.994247 4.001108 137.014694 4.220926 C 137.035141 4.440746 137.05304 4.617109 137.068375 4.750023 C 137.08371 4.882936 137.096497 5.031185 137.10672 5.194771 C 137.260086 6.493235 137.336761 8.512469 137.336761 11.252536 L 137.336761 23 L 134.346222 23 L 134.346222 2.050867 L 139.253769 2.050867 L 143.394531 12.571442 C 144.007965 14.105061 144.511505 15.398394 144.905136 16.451479 C 145.298767 17.504564 145.623367 18.557632 145.878967 19.610718 C 146.379959 17.862392 147.218323 15.495543 148.394104 12.510098 L 152.381485 2.050867 Z M 129.453995 2.050867 L 129.453995 4.627335 L 120.789085 4.627335 L 120.789085 10.777117 L 128.825211 10.777117 L 128.825211 13.353583 L 120.789085 13.353583 L 120.789085 20.454205 L 129.699371 20.454205 L 129.699371 23 L 117.798546 23 L 117.798546 2.050867 Z M 112.185524 2.925026 L 111.98616 5.823551 C 111.147781 5.353241 110.30941 5.010738 109.471031 4.796032 C 108.632652 4.581326 107.692047 4.473972 106.649185 4.473972 C 104.992882 4.473972 103.525742 4.808807 102.247726 5.478489 C 100.969711 6.148169 99.980537 7.091331 99.280182 8.308002 C 98.579834 9.524673 98.22966 10.894686 98.22966 12.41808 C 98.22966 14.013044 98.584946 15.436733 99.295525 16.689188 C 100.006096 17.941645 101.010605 18.90781 102.309067 19.587715 C 103.607529 20.267618 105.095123 20.607567 106.771881 20.607567 C 107.651154 20.607567 108.59687 20.46443 109.609062 20.178154 L 109.609062 14.105053 L 105.115578 14.105053 L 105.115578 11.574594 L 112.584267 11.574594 L 112.584267 22.187185 C 111.531181 22.534805 110.531784 22.782738 109.586052 22.930988 C 108.64032 23.079237 107.64093 23.15336 106.587845 23.15336 C 104.839516 23.15336 103.254799 22.907986 101.833649 22.417227 C 100.412498 21.92647 99.185616 21.205679 98.152985 20.254835 C 97.120346 19.303991 96.340767 18.16913 95.814224 16.850218 C 95.287682 15.531305 95.024414 14.043717 95.024414 12.387408 C 95.024414 10.209669 95.527946 8.331014 96.535019 6.751387 C 97.542099 5.171759 98.912109 3.972998 100.645103 3.155067 C 102.37809 2.337137 104.318085 1.928179 106.465157 1.928179 C 108.55088 1.928179 110.457649 2.260458 112.185524 2.925026 Z M 81.835358 1.667463 C 83.941528 1.667463 85.763947 2.130098 87.302681 3.055382 C 88.841415 3.980665 90.009499 5.263775 90.806984 6.904747 C 91.604462 8.54572 92.003197 10.424376 92.003197 12.54077 C 92.003197 14.197079 91.770607 15.697447 91.305405 17.04192 C 90.84021 18.386393 90.165428 19.534033 89.281044 20.484877 C 88.396652 21.43572 87.335915 22.161623 86.098793 22.662605 C 84.861679 23.163588 83.471214 23.414076 81.927376 23.414076 C 79.831429 23.414076 78.011559 22.946329 76.46772 22.01082 C 74.923874 21.075314 73.750671 19.781981 72.948074 18.130783 C 72.145485 16.479588 71.744194 14.616267 71.744194 12.54077 C 71.744194 10.976478 71.969124 9.532342 72.418983 8.208317 C 72.868843 6.884293 73.523178 5.736652 74.382004 4.76536 C 75.240829 3.794067 76.306679 3.034937 77.579582 2.487946 C 78.852486 1.940956 80.271065 1.667463 81.835358 1.667463 Z M 81.804688 4.029226 C 80.465324 4.029226 79.271675 4.384508 78.223701 5.095085 C 77.175728 5.805662 76.368034 6.807611 75.800598 8.100965 C 75.233154 9.394317 74.94944 10.864013 74.94944 12.510098 C 74.94944 13.726768 75.118134 14.871854 75.455536 15.945387 C 75.792931 17.018921 76.273453 17.936522 76.897125 18.698219 C 77.520798 19.459917 78.254372 20.042685 79.097862 20.446537 C 79.941353 20.850389 80.87429 21.052313 81.896698 21.052313 C 82.898666 21.052313 83.821381 20.847834 84.664871 20.438869 C 85.508362 20.029903 86.244484 19.442024 86.873268 18.675217 C 87.502052 17.908405 87.980026 17.021477 88.307198 16.0144 C 88.634369 15.007323 88.797951 13.88013 88.797951 12.632786 C 88.797951 11.324098 88.634369 10.145785 88.307198 9.097812 C 87.980026 8.049839 87.502052 7.142461 86.873268 6.375652 C 86.244484 5.608841 85.500694 5.026075 84.641869 4.627335 C 83.783035 4.228594 82.837318 4.029226 81.804688 4.029226 Z M 68.048187 2.050867 L 68.048187 4.627335 L 59.383282 4.627335 L 59.383282 10.777117 L 67.419411 10.777117 L 67.419411 13.353583 L 59.383282 13.353583 L 59.383282 20.454205 L 68.293564 20.454205 L 68.293564 23 L 56.392742 23 L 56.392742 2.050867 Z M 50.779724 2.925026 L 50.580353 5.823551 C 49.741974 5.353241 48.90361 5.010738 48.065231 4.796032 C 47.226852 4.581326 46.286247 4.473972 45.243385 4.473972 C 43.587078 4.473972 42.119938 4.808807 40.841919 5.478489 C 39.563904 6.148169 38.574734 7.091331 37.874382 8.308002 C 37.17403 9.524673 36.823856 10.894686 36.823856 12.41808 C 36.823856 14.013044 37.179142 15.436733 37.889717 16.689188 C 38.600296 17.941645 39.604801 18.90781 40.903263 19.587715 C 42.201729 20.267618 43.689316 20.607567 45.366074 20.607567 C 46.24535 20.607567 47.191067 20.46443 48.203255 20.178154 L 48.203255 14.105053 L 43.709774 14.105053 L 43.709774 11.574594 L 51.178463 11.574594 L 51.178463 22.187185 C 50.125378 22.534805 49.125984 22.782738 48.180252 22.930988 C 47.23452 23.079237 46.235126 23.15336 45.182041 23.15336 C 43.433716 23.15336 41.848999 22.907986 40.427845 22.417227 C 39.006691 21.92647 37.779816 21.205679 36.747177 20.254835 C 35.714539 19.303991 34.934963 18.16913 34.408421 16.850218 C 33.881878 15.531305 33.61861 14.043717 33.61861 12.387408 C 33.61861 10.209669 34.122139 8.331014 35.129215 6.751387 C 36.136295 5.171759 37.506306 3.972998 39.239296 3.155067 C 40.972286 2.337137 42.912285 1.928179 45.059353 1.928179 C 47.145073 1.928179 49.051846 2.260458 50.779724 2.925026 Z"/>
</svg>
