<svg width="200" height="23" viewBox="0 0 200 23" xmlns="http://www.w3.org/2000/svg" xmlns:xlink="http://www.w3.org/1999/xlink">
    <path id="GEOGEMSbid" fill="#ffffff" fill-rule="evenodd" stroke="none" d="M 198.461227 0.37923 L 198.461227 15.838034 C 198.461227 16.635517 198.486786 17.836834 198.537903 19.44202 C 198.58902 21.047209 198.63504 22.233191 198.675934 23 L 195.915436 23 L 195.915436 20.423532 C 195.291763 21.374376 194.550522 22.077274 193.691696 22.532249 C 192.83287 22.987223 191.805359 23.214706 190.609131 23.214706 C 189.269775 23.214706 188.088898 22.897762 187.066498 22.263866 C 186.044083 21.629971 185.259384 20.720037 184.712402 19.534039 C 184.165405 18.34804 183.891922 16.967802 183.891922 15.393288 C 183.891922 14.197064 184.047836 13.118435 184.359665 12.157367 C 184.671509 11.196299 185.13414 10.347709 185.747589 9.611571 C 186.361038 8.875435 187.076706 8.320784 187.894638 7.947603 C 188.71257 7.574423 189.617386 7.387835 190.609131 7.387835 C 192.786865 7.387835 194.484055 8.277321 195.700729 10.056319 C 195.700729 9.902957 195.693054 9.688253 195.677719 9.412202 C 195.662384 9.13615 195.647049 8.862659 195.631714 8.59172 C 195.616379 8.320781 195.608704 8.108633 195.608704 7.955271 L 195.608704 0.37923 Z M 191.299255 9.810941 C 190.655136 9.810941 190.067261 9.943852 189.535599 10.209681 C 189.003952 10.475508 188.538757 10.858907 188.140015 11.359889 C 187.741272 11.860871 187.434555 12.458974 187.219849 13.154214 C 187.005142 13.849455 186.897797 14.585581 186.897797 15.362615 C 186.897797 16.957579 187.301636 18.263691 188.109344 19.280993 C 188.917053 20.298292 189.949677 20.806936 191.207245 20.806936 C 192.055847 20.806936 192.817535 20.569229 193.492325 20.093807 C 194.167114 19.618385 194.698761 18.958939 195.08728 18.115448 C 195.4758 17.271957 195.670044 16.344131 195.670044 15.331943 C 195.670044 14.309529 195.478348 13.374036 195.09494 12.525434 C 194.711548 11.676831 194.185013 11.012273 193.51532 10.531738 C 192.845642 10.051205 192.106964 9.810941 191.299255 9.810941 Z M 180.56398 0.823978 L 180.56398 3.967882 L 177.450745 3.967882 L 177.450745 0.823978 Z M 180.50264 7.648549 L 180.50264 23 L 177.634781 23 L 177.634781 7.648549 Z M 162.436691 0.37923 L 162.436691 8.522707 C 162.436691 9.115706 162.406021 9.713809 162.344681 10.317033 C 162.722961 9.437757 163.395187 8.729748 164.361374 8.192981 C 165.327545 7.656215 166.413849 7.387835 167.6203 7.387835 C 168.622269 7.387835 169.529633 7.566754 170.342453 7.924599 C 171.155273 8.282443 171.855621 8.806422 172.443512 9.496551 C 173.031387 10.18668 173.478699 11.007154 173.785416 11.957997 C 174.092133 12.908841 174.245499 13.982358 174.245499 15.178581 C 174.245499 16.385029 174.092133 17.48155 173.785416 18.468178 C 173.478699 19.454807 173.028839 20.305952 172.435837 21.021641 C 171.842834 21.737329 171.134827 22.281757 170.311783 22.654938 C 169.488739 23.028118 168.58136 23.214706 167.58963 23.214706 C 166.403625 23.214706 165.350555 22.966774 164.430389 22.470903 C 163.510208 21.975035 162.804764 21.28236 162.313995 20.39286 L 162.313995 23 L 159.568832 23 L 159.568832 0.37923 Z M 167.022186 9.810941 C 166.173584 9.810941 165.401672 10.051205 164.706436 10.531738 C 164.0112 11.012273 163.46933 11.674274 163.080811 12.517765 C 162.692291 13.361256 162.498032 14.299306 162.498032 15.331943 C 162.498032 16.333908 162.689728 17.25662 163.073135 18.100111 C 163.456543 18.943602 163.98819 19.605604 164.668091 20.086138 C 165.347992 20.566671 166.10202 20.806936 166.930176 20.806936 C 167.737885 20.806936 168.471451 20.571785 169.130905 20.101475 C 169.790359 19.631165 170.304108 18.971718 170.67218 18.123116 C 171.040253 17.274513 171.224289 16.333908 171.224289 15.30127 C 171.224289 13.675634 170.838333 12.354185 170.066406 11.336884 C 169.294479 10.319584 168.279755 9.810941 167.022186 9.810941 Z M 154.829971 19.641392 L 154.829971 23 L 151.471375 23 L 151.471375 19.641392 Z M 146.594482 2.434269 L 146.22641 5.072083 C 144.733688 4.499531 143.425018 4.213259 142.300369 4.213259 C 141.543793 4.213259 140.88179 4.333391 140.314346 4.573658 C 139.746902 4.813925 139.307281 5.151316 138.995438 5.585842 C 138.683609 6.020367 138.527679 6.529009 138.527679 7.111785 C 138.527679 8.021732 138.847183 8.716963 139.486191 9.197496 C 140.125198 9.678031 141.249832 10.334921 142.860138 11.168187 C 144.470444 12.001453 145.679428 12.844932 146.487137 13.698647 C 147.29483 14.552361 147.698685 15.684666 147.698685 17.095596 C 147.698685 18.322491 147.402191 19.421568 146.809189 20.39286 C 146.216187 21.364153 145.375275 22.110502 144.286392 22.631933 C 143.197525 23.153364 141.947647 23.414076 140.536713 23.414076 C 138.870178 23.414076 137.28035 23.138027 135.767181 22.585924 L 136.073914 19.76408 C 137.617752 20.500217 138.987762 20.86828 140.18399 20.86828 C 141.032593 20.86828 141.786606 20.725143 142.44606 20.438869 C 143.105515 20.152594 143.611603 19.741077 143.96434 19.204311 C 144.317078 18.667545 144.493439 18.036215 144.493439 17.310301 C 144.493439 16.267441 144.140701 15.477638 143.435242 14.940871 C 142.729782 14.404105 141.61026 13.767662 140.07663 13.031526 C 138.543015 12.295388 137.382599 11.531146 136.595337 10.738776 C 135.808075 9.946406 135.414459 8.829437 135.414459 7.387835 C 135.414459 6.263182 135.687943 5.2689 136.23494 4.404961 C 136.781921 3.541021 137.558945 2.868795 138.566025 2.388262 C 139.573105 1.907728 140.720749 1.667463 142.008987 1.667463 C 143.634628 1.667463 145.163101 1.923063 146.594482 2.434269 Z M 131.365723 2.050867 L 131.365723 23 L 128.421188 23 L 128.421188 11.03783 C 128.431412 10.39371 128.441635 9.701036 128.451859 8.959786 C 128.462082 8.218537 128.472305 7.530975 128.482529 6.897079 C 128.492752 6.263184 128.500427 5.739204 128.505539 5.325127 C 128.510651 4.911051 128.513199 4.27972 128.513199 3.431118 C 128.308716 4.136581 128.027557 5.0184 127.669716 6.076597 C 127.311874 7.134794 126.941254 8.180196 126.557846 9.212832 C 126.174446 10.245469 125.727142 11.446787 125.215942 12.816819 L 121.259224 23 L 118.360695 23 L 114.403976 12.816819 C 113.810982 11.262753 113.194984 9.647365 112.555977 7.970608 C 111.916969 6.29385 111.403214 4.780703 111.014694 3.431118 C 111.014694 3.574255 111.004471 3.681606 110.984024 3.753176 C 110.984024 3.845192 110.994247 4.001108 111.014694 4.220926 C 111.035141 4.440746 111.05304 4.617109 111.068375 4.750023 C 111.08371 4.882936 111.096489 5.031185 111.106712 5.194771 C 111.260078 6.493235 111.336754 8.512469 111.336754 11.252536 L 111.336754 23 L 108.346214 23 L 108.346214 2.050867 L 113.253769 2.050867 L 117.394524 12.571442 C 118.007965 14.105061 118.511497 15.398394 118.905128 16.451479 C 119.298759 17.504564 119.623367 18.557632 119.878967 19.610718 C 120.379951 17.862392 121.218323 15.495543 122.394096 12.510098 L 126.381485 2.050867 Z M 103.453995 2.050867 L 103.453995 4.627335 L 94.789085 4.627335 L 94.789085 10.777117 L 102.825211 10.777117 L 102.825211 13.353583 L 94.789085 13.353583 L 94.789085 20.454205 L 103.699371 20.454205 L 103.699371 23 L 91.798546 23 L 91.798546 2.050867 Z M 86.185524 2.925026 L 85.98616 5.823551 C 85.147781 5.353241 84.30941 5.010738 83.471031 4.796032 C 82.632652 4.581326 81.692047 4.473972 80.649185 4.473972 C 78.992882 4.473972 77.525742 4.808807 76.247726 5.478489 C 74.969711 6.148169 73.980537 7.091331 73.280182 8.308002 C 72.579834 9.524673 72.22966 10.894686 72.22966 12.41808 C 72.22966 14.013044 72.584946 15.436733 73.295525 16.689188 C 74.006096 17.941645 75.010605 18.90781 76.309067 19.587715 C 77.607529 20.267618 79.095123 20.607567 80.771881 20.607567 C 81.651154 20.607567 82.59687 20.46443 83.609062 20.178154 L 83.609062 14.105053 L 79.115578 14.105053 L 79.115578 11.574594 L 86.584267 11.574594 L 86.584267 22.187185 C 85.531181 22.534805 84.531784 22.782738 83.586052 22.930988 C 82.64032 23.079237 81.64093 23.15336 80.587845 23.15336 C 78.839516 23.15336 77.254799 22.907986 75.833649 22.417227 C 74.412498 21.92647 73.185616 21.205679 72.152985 20.254835 C 71.120346 19.303991 70.340767 18.16913 69.814224 16.850218 C 69.287682 15.531305 69.024414 14.043717 69.024414 12.387408 C 69.024414 10.209669 69.527946 8.331014 70.535019 6.751387 C 71.542099 5.171759 72.912109 3.972998 74.645103 3.155067 C 76.37809 2.337137 78.318085 1.928179 80.465157 1.928179 C 82.55088 1.928179 84.457649 2.260458 86.185524 2.925026 Z M 55.835354 1.667463 C 57.941525 1.667463 59.763947 2.130098 61.302681 3.055382 C 62.841412 3.980665 64.009499 5.263775 64.806984 6.904747 C 65.604462 8.54572 66.003197 10.424376 66.003197 12.54077 C 66.003197 14.197079 65.770607 15.697447 65.305405 17.04192 C 64.84021 18.386393 64.165428 19.534033 63.28104 20.484877 C 62.396652 21.43572 61.335915 22.161623 60.098793 22.662605 C 58.861675 23.163588 57.471214 23.414076 55.927372 23.414076 C 53.831425 23.414076 52.011559 22.946329 50.467716 22.01082 C 48.92387 21.075314 47.750671 19.781981 46.948074 18.130783 C 46.145481 16.479588 45.74419 14.616267 45.74419 12.54077 C 45.74419 10.976478 45.96912 9.532342 46.41898 8.208317 C 46.868843 6.884293 47.523174 5.736652 48.382004 4.76536 C 49.240829 3.794067 50.306679 3.034937 51.579582 2.487946 C 52.852486 1.940956 54.271065 1.667463 55.835354 1.667463 Z M 55.804684 4.029226 C 54.465321 4.029226 53.271671 4.384508 52.223698 5.095085 C 51.175728 5.805662 50.368034 6.807611 49.800594 8.100965 C 49.233154 9.394317 48.94944 10.864013 48.94944 12.510098 C 48.94944 13.726768 49.118134 14.871854 49.455532 15.945387 C 49.792927 17.018921 50.273453 17.936522 50.897125 18.698219 C 51.520798 19.459917 52.254368 20.042685 53.097858 20.446537 C 53.941349 20.850389 54.874287 21.052313 55.896698 21.052313 C 56.898663 21.052313 57.821377 20.847834 58.664867 20.438869 C 59.508358 20.029903 60.244484 19.442024 60.873268 18.675217 C 61.502052 17.908405 61.980022 17.021477 62.307194 16.0144 C 62.634369 15.007323 62.797951 13.88013 62.797951 12.632786 C 62.797951 11.324098 62.634369 10.145785 62.307194 9.097812 C 61.980022 8.049839 61.502052 7.142461 60.873268 6.375652 C 60.244484 5.608841 59.50069 5.026075 58.641865 4.627335 C 57.783035 4.228594 56.837318 4.029226 55.804684 4.029226 Z M 42.048187 2.050867 L 42.048187 4.627335 L 33.383282 4.627335 L 33.383282 10.777117 L 41.419407 10.777117 L 41.419407 13.353583 L 33.383282 13.353583 L 33.383282 20.454205 L 42.293564 20.454205 L 42.293564 23 L 30.39274 23 L 30.39274 2.050867 Z M 24.779722 2.925026 L 24.580353 5.823551 C 23.741974 5.353241 22.903608 5.010738 22.065229 4.796032 C 21.226851 4.581326 20.286245 4.473972 19.243383 4.473972 C 17.587076 4.473972 16.119936 4.808807 14.841919 5.478489 C 13.563903 6.148169 12.574734 7.091331 11.874381 8.308002 C 11.174028 9.524673 10.823857 10.894686 10.823857 12.41808 C 10.823857 14.013044 11.17914 15.436733 11.889717 16.689188 C 12.600294 17.941645 13.604799 18.90781 14.903264 19.587715 C 16.201729 20.267618 17.689316 20.607567 19.366074 20.607567 C 20.245348 20.607567 21.191067 20.46443 22.203255 20.178154 L 22.203255 14.105053 L 17.709772 14.105053 L 17.709772 11.574594 L 25.178461 11.574594 L 25.178461 22.187185 C 24.125376 22.534805 23.125982 22.782738 22.18025 22.930988 C 21.234518 23.079237 20.235125 23.15336 19.182039 23.15336 C 17.433714 23.15336 15.848998 22.907986 14.427844 22.417227 C 13.00669 21.92647 11.779814 21.205679 10.747176 20.254835 C 9.71454 19.303991 8.934961 18.16913 8.408419 16.850218 C 7.881876 15.531305 7.618609 14.043717 7.618609 12.387408 C 7.618609 10.209669 8.12214 8.331014 9.129216 6.751387 C 10.136293 5.171759 11.506306 3.972998 13.239295 3.155067 C 14.972285 2.337137 16.912285 1.928179 19.059351 1.928179 C 21.145073 1.928179 23.051844 2.260458 24.779722 2.925026 Z"/>
</svg>
