<svg width="200" height="23" viewBox="0 0 200 23" xmlns="http://www.w3.org/2000/svg" xmlns:xlink="http://www.w3.org/1999/xlink">
    <path id="GEOGEM-NFTs" fill="#ffffff" fill-rule="evenodd" stroke="none" d="M 199.362686 7.016616 L 199.14798 9.40905 C 198.146011 8.908068 197.108292 8.65758 196.03476 8.65758 C 195.247498 8.65758 194.621277 8.833943 194.156082 9.186676 C 193.690887 9.539409 193.458282 10.002043 193.458282 10.574594 C 193.458282 11.167594 193.688324 11.622561 194.148407 11.939508 C 194.60849 12.256456 195.42897 12.708867 196.609863 13.296755 C 197.790741 13.884642 198.687897 14.490413 199.301346 15.114084 C 199.914795 15.737757 200.221512 16.565899 200.221512 17.598536 C 200.221512 18.293776 200.091156 18.930218 199.830444 19.507881 C 199.569733 20.085545 199.188889 20.581408 198.687897 20.995483 C 198.18692 21.409561 197.586258 21.726505 196.88591 21.946323 C 196.185547 22.166142 195.431534 22.276051 194.623825 22.276051 C 193.212906 22.276051 191.883789 21.984667 190.636444 21.401892 L 190.636444 18.856096 C 191.372574 19.213942 192.021805 19.472095 192.584122 19.630569 C 193.146454 19.789043 193.698547 19.86828 194.240433 19.86828 C 194.80275 19.86828 195.308838 19.781376 195.758698 19.607567 C 196.208557 19.433756 196.561295 19.193493 196.816895 18.886768 C 197.072495 18.580044 197.200302 18.237541 197.200302 17.859249 C 197.200302 17.276474 196.957474 16.821507 196.471832 16.494335 C 195.986191 16.167162 195.163162 15.701972 194.002716 15.098748 C 192.842285 14.495524 191.960464 13.87953 191.357239 13.250747 C 190.754013 12.621963 190.452408 11.821937 190.452408 10.850644 C 190.452408 9.961145 190.672226 9.179011 191.111862 8.504219 C 191.551498 7.829427 192.177719 7.308003 192.99054 6.939936 C 193.803345 6.571867 194.736282 6.387835 195.789368 6.387835 C 196.924255 6.387835 198.115341 6.597427 199.362686 7.016616 Z M 189.164169 1.050867 L 189.164169 3.627335 L 182.600311 3.627335 L 182.600311 22 L 179.625107 22 L 179.625107 3.627335 L 172.923233 3.627335 L 172.923233 1.050867 Z M 171.420288 1.050867 L 171.420288 3.627335 L 163.292145 3.627335 L 163.292145 9.869133 L 171.113571 9.869133 L 171.113571 12.414928 L 163.292145 12.414928 L 163.292145 22 L 160.301605 22 L 160.301605 1.050867 Z M 154.90329 1.050867 L 154.90329 22 L 151.038589 22 L 144.413391 10.635939 C 143.26828 8.611562 142.478485 7.177649 142.043961 6.334158 C 141.609436 5.490667 141.22348 4.527058 140.886078 3.4433 C 141.059891 5.743731 141.14679 8.381515 141.14679 11.356736 L 141.14679 22 L 138.15625 22 L 138.15625 1.050867 L 142.235657 1.050867 L 149.366959 13.39644 C 150.808563 15.901351 151.774719 17.900139 152.265472 19.39286 C 152.132568 17.992155 152.055893 17.05155 152.035431 16.571014 C 152.014984 15.753085 151.997101 14.945391 151.981766 14.147909 C 151.966431 13.350428 151.956207 12.849452 151.951096 12.64497 C 151.945984 12.440487 151.94342 11.934401 151.94342 11.126695 L 151.94342 1.050867 Z M 124.031693 1.050867 L 124.031693 22 L 121.087158 22 L 121.087158 10.03783 C 121.097382 9.39371 121.107605 8.701036 121.117828 7.959786 C 121.128052 7.218537 121.138275 6.530975 121.148506 5.897079 C 121.15873 5.263184 121.166397 4.739204 121.171509 4.325127 C 121.17662 3.911051 121.179176 3.27972 121.179176 2.431118 C 120.974693 3.136581 120.693535 4.0184 120.335686 5.076597 C 119.977844 6.134794 119.607224 7.180196 119.223824 8.212832 C 118.840416 9.245469 118.39312 10.446787 117.881912 11.816819 L 113.925194 22 L 111.026665 22 L 107.069946 11.816819 C 106.476952 10.262753 105.860954 8.647365 105.221947 6.970608 C 104.582939 5.29385 104.069183 3.780703 103.680664 2.431118 C 103.680664 2.574255 103.670441 2.681606 103.649994 2.753176 C 103.649994 2.845192 103.660217 3.001108 103.680664 3.220926 C 103.701118 3.440746 103.719009 3.617109 103.734344 3.750023 C 103.74968 3.882936 103.762459 4.031185 103.772682 4.194771 C 103.926048 5.493235 104.002724 7.512469 104.002724 10.252536 L 104.002724 22 L 101.012184 22 L 101.012184 1.050867 L 105.919739 1.050867 L 110.060493 11.571442 C 110.673943 13.105061 111.177467 14.398394 111.571098 15.451479 C 111.964729 16.504564 112.289337 17.557632 112.544945 18.610718 C 113.045921 16.862392 113.884293 14.495543 115.060066 11.510098 L 119.047455 1.050867 Z M 96.119965 1.050867 L 96.119965 3.627335 L 87.455055 3.627335 L 87.455055 9.777117 L 95.49118 9.777117 L 95.49118 12.353583 L 87.455055 12.353583 L 87.455055 19.454205 L 96.365341 19.454205 L 96.365341 22 L 84.464516 22 L 84.464516 1.050867 Z M 78.851494 1.925026 L 78.65213 4.823551 C 77.813751 4.353241 76.97538 4.010738 76.137009 3.796032 C 75.29863 3.581326 74.358025 3.473972 73.315163 3.473972 C 71.658852 3.473972 70.191711 3.808807 68.913696 4.478489 C 67.635681 5.148169 66.646507 6.091331 65.946159 7.308002 C 65.245804 8.524673 64.89563 9.894686 64.89563 11.41808 C 64.89563 13.013044 65.250916 14.436733 65.961494 15.689188 C 66.672073 16.941645 67.676575 17.90781 68.975037 18.587715 C 70.273506 19.267618 71.761093 19.607567 73.437851 19.607567 C 74.317123 19.607567 75.26284 19.46443 76.275032 19.178154 L 76.275032 13.105053 L 71.781548 13.105053 L 71.781548 10.574594 L 79.250237 10.574594 L 79.250237 21.187185 C 78.197151 21.534805 77.197762 21.782738 76.252029 21.930988 C 75.306297 22.079237 74.3069 22.15336 73.253815 22.15336 C 71.505493 22.15336 69.920776 21.907986 68.499619 21.417227 C 67.078468 20.92647 65.851585 20.205679 64.818954 19.254835 C 63.786316 18.303991 63.006737 17.16913 62.480194 15.850218 C 61.953651 14.531305 61.690384 13.043717 61.690384 11.387408 C 61.690384 9.209669 62.193916 7.331014 63.200993 5.751387 C 64.208069 4.171759 65.578079 2.972998 67.311073 2.155067 C 69.04406 1.337137 70.984062 0.928179 73.131126 0.928179 C 75.21685 0.928179 77.123619 1.260458 78.851494 1.925026 Z M 48.501328 0.667463 C 50.607494 0.667463 52.42992 1.130098 53.968651 2.055382 C 55.507381 2.980665 56.675472 4.263775 57.472954 5.904747 C 58.270435 7.54572 58.66917 9.424376 58.66917 11.54077 C 58.66917 13.197079 58.436573 14.697447 57.971378 16.04192 C 57.50618 17.386393 56.831398 18.534033 55.94701 19.484877 C 55.062622 20.43572 54.001884 21.161623 52.764767 21.662605 C 51.527645 22.163588 50.137184 22.414076 48.593342 22.414076 C 46.497395 22.414076 44.677528 21.946329 43.133686 21.01082 C 41.589844 20.075314 40.416641 18.781981 39.614048 17.130783 C 38.811455 15.479588 38.410164 13.616267 38.410164 11.54077 C 38.410164 9.976478 38.63509 8.532342 39.084949 7.208317 C 39.534813 5.884293 40.189148 4.736652 41.047974 3.76536 C 41.906799 2.794067 42.972649 2.034937 44.245556 1.487946 C 45.518459 0.940956 46.937035 0.667463 48.501328 0.667463 Z M 48.470654 3.029226 C 47.131294 3.029226 45.937645 3.384508 44.889671 4.095085 C 43.841698 4.805662 43.034004 5.807611 42.466564 7.100965 C 41.899124 8.394317 41.61541 9.864013 41.61541 11.510098 C 41.61541 12.726768 41.784107 13.871854 42.121502 14.945387 C 42.458897 16.018921 42.939426 16.936522 43.563095 17.698219 C 44.186768 18.459917 44.920338 19.042685 45.763828 19.446537 C 46.607319 19.850389 47.540257 20.052313 48.562672 20.052313 C 49.564636 20.052313 50.48735 19.847834 51.330837 19.438869 C 52.174328 19.029903 52.910458 18.442024 53.539238 17.675217 C 54.168022 16.908405 54.645996 16.021477 54.973167 15.0144 C 55.300339 14.007323 55.463921 12.88013 55.463921 11.632786 C 55.463921 10.324098 55.300339 9.145785 54.973167 8.097812 C 54.645996 7.049839 54.168022 6.142462 53.539238 5.375652 C 52.910458 4.608841 52.16666 4.026075 51.307835 3.627335 C 50.449009 3.228594 49.503292 3.029226 48.470654 3.029226 Z M 34.714157 1.050867 L 34.714157 3.627335 L 26.049253 3.627335 L 26.049253 9.777117 L 34.085377 9.777117 L 34.085377 12.353583 L 26.049253 12.353583 L 26.049253 19.454205 L 34.959538 19.454205 L 34.959538 22 L 23.058712 22 L 23.058712 1.050867 Z M 17.445694 1.925026 L 17.246323 4.823551 C 16.407946 4.353241 15.569579 4.010738 14.731201 3.796032 C 13.892822 3.581326 12.952216 3.473972 11.909355 3.473972 C 10.253047 3.473972 8.785907 3.808807 7.507891 4.478489 C 6.229875 5.148169 5.240705 6.091331 4.540352 7.308002 C 3.839999 8.524673 3.489828 9.894686 3.489828 11.41808 C 3.489828 13.013044 3.845112 14.436733 4.555688 15.689188 C 5.266265 16.941645 6.270771 17.90781 7.569235 18.587715 C 8.8677 19.267618 10.355288 19.607567 12.032044 19.607567 C 12.91132 19.607567 13.857038 19.46443 14.869226 19.178154 L 14.869226 13.105053 L 10.375744 13.105053 L 10.375744 10.574594 L 17.844433 10.574594 L 17.844433 21.187185 C 16.791348 21.534805 15.791953 21.782738 14.846222 21.930988 C 13.90049 22.079237 12.901096 22.15336 11.848011 22.15336 C 10.099686 22.15336 8.514969 21.907986 7.093815 21.417227 C 5.672662 20.92647 4.445785 20.205679 3.413148 19.254835 C 2.380511 18.303991 1.600933 17.16913 1.07439 15.850218 C 0.547848 14.531305 0.28458 13.043717 0.28458 11.387408 C 0.28458 9.209669 0.788111 7.331014 1.795188 5.751387 C 2.802264 4.171759 4.172277 2.972998 5.905267 2.155067 C 7.638256 1.337137 9.578256 0.928179 11.725322 0.928179 C 13.811045 0.928179 15.717815 1.260458 17.445694 1.925026 Z"/>
</svg>
