<svg width="200" height="23" viewBox="0 0 200 23" xmlns="http://www.w3.org/2000/svg" xmlns:xlink="http://www.w3.org/1999/xlink">
    <path id="GEOGEM" fill="#ffffff" fill-rule="evenodd" stroke="none" d="M 160.732925 1.434269 L 160.310577 4.072083 C 158.597672 3.499531 157.095978 3.213259 155.80545 3.213259 C 154.937271 3.213259 154.177628 3.333391 153.526505 3.573658 C 152.875366 3.813925 152.37088 4.151316 152.013062 4.585842 C 151.655212 5.020367 151.476303 5.529009 151.476303 6.111784 C 151.476303 7.021732 151.842941 7.716963 152.576202 8.197496 C 153.309448 8.678031 154.59996 9.334921 156.447784 10.168187 C 158.295609 11.001453 159.682907 11.844932 160.609741 12.698647 C 161.536575 13.552361 162 14.684666 162 16.095596 C 162 17.322491 161.659775 18.421568 160.979309 19.39286 C 160.298843 20.364153 159.333878 21.110502 158.084412 21.631933 C 156.83493 22.153364 155.400711 22.414076 153.781662 22.414076 C 151.869324 22.414076 150.044998 22.138027 148.308655 21.585924 L 148.660614 18.76408 C 150.432175 19.500217 152.004257 19.86828 153.376923 19.86828 C 154.350693 19.86828 155.215912 19.725143 155.972641 19.438869 C 156.729355 19.152594 157.310089 18.741077 157.714859 18.204311 C 158.119598 17.667545 158.321991 17.036215 158.321991 16.310301 C 158.321991 15.267441 157.917221 14.477638 157.107712 13.940871 C 156.298203 13.404105 155.013535 12.767662 153.253723 12.031526 C 151.493912 11.295388 150.162338 10.531146 149.258957 9.738776 C 148.355576 8.946406 147.9039 7.829437 147.9039 6.387835 C 147.9039 5.263182 148.217728 4.2689 148.845398 3.404961 C 149.473053 2.541021 150.364685 1.868795 151.520309 1.388262 C 152.675934 0.907728 153.992844 0.667463 155.4711 0.667463 C 157.336487 0.667463 159.090424 0.923063 160.732925 1.434269 Z M 144.031693 1.050867 L 144.031693 22 L 141.087158 22 L 141.087158 10.03783 C 141.097382 9.39371 141.107605 8.701036 141.117828 7.959786 C 141.128052 7.218537 141.138275 6.530975 141.148514 5.897079 C 141.158737 5.263184 141.166397 4.739204 141.171509 4.325127 C 141.17662 3.911051 141.179184 3.27972 141.179184 2.431118 C 140.974701 3.136581 140.693542 4.0184 140.335693 5.076597 C 139.977844 6.134794 139.607224 7.180196 139.223831 8.212832 C 138.840424 9.245469 138.393127 10.446787 137.881912 11.816819 L 133.925201 22 L 131.026672 22 L 127.069946 11.816819 C 126.476952 10.262753 125.860954 8.647365 125.221947 6.970608 C 124.582939 5.29385 124.069183 3.780703 123.680664 2.431118 C 123.680664 2.574255 123.670441 2.681606 123.649994 2.753176 C 123.649994 2.845192 123.660217 3.001108 123.680664 3.220926 C 123.701118 3.440746 123.719009 3.617109 123.734344 3.750023 C 123.74968 3.882936 123.762459 4.031185 123.772682 4.194771 C 123.926048 5.493235 124.002724 7.512469 124.002724 10.252536 L 124.002724 22 L 121.012184 22 L 121.012184 1.050867 L 125.919739 1.050867 L 130.060501 11.571442 C 130.67395 13.105061 131.177475 14.398394 131.571106 15.451479 C 131.964737 16.504564 132.289337 17.557632 132.544952 18.610718 C 133.045929 16.862392 133.884293 14.495543 135.060074 11.510098 L 139.047455 1.050867 Z M 116.119965 1.050867 L 116.119965 3.627335 L 107.455055 3.627335 L 107.455055 9.777117 L 115.49118 9.777117 L 115.49118 12.353583 L 107.455055 12.353583 L 107.455055 19.454205 L 116.365341 19.454205 L 116.365341 22 L 104.464516 22 L 104.464516 1.050867 Z M 98.851494 1.925026 L 98.65213 4.823551 C 97.813751 4.353241 96.97538 4.010738 96.137009 3.796032 C 95.29863 3.581326 94.358025 3.473972 93.315163 3.473972 C 91.658852 3.473972 90.191711 3.808807 88.913696 4.478489 C 87.635681 5.148169 86.646507 6.091331 85.946159 7.308002 C 85.245804 8.524673 84.89563 9.894686 84.89563 11.41808 C 84.89563 13.013044 85.250916 14.436733 85.961494 15.689188 C 86.672073 16.941645 87.676575 17.90781 88.975037 18.587715 C 90.273506 19.267618 91.761093 19.607567 93.437851 19.607567 C 94.317123 19.607567 95.26284 19.46443 96.275032 19.178154 L 96.275032 13.105053 L 91.781548 13.105053 L 91.781548 10.574594 L 99.250237 10.574594 L 99.250237 21.187185 C 98.197151 21.534805 97.197762 21.782738 96.252029 21.930988 C 95.306297 22.079237 94.3069 22.15336 93.253815 22.15336 C 91.505493 22.15336 89.920776 21.907986 88.499619 21.417227 C 87.078468 20.92647 85.851585 20.205679 84.818954 19.254835 C 83.786316 18.303991 83.006737 17.16913 82.480194 15.850218 C 81.953651 14.531305 81.690384 13.043717 81.690384 11.387408 C 81.690384 9.209669 82.193916 7.331014 83.200996 5.751387 C 84.208069 4.171759 85.578079 2.972998 87.311073 2.155067 C 89.04406 1.337137 90.984062 0.928179 93.131126 0.928179 C 95.21685 0.928179 97.123619 1.260458 98.851494 1.925026 Z M 68.501328 0.667463 C 70.607498 0.667463 72.429924 1.130098 73.968651 2.055382 C 75.507385 2.980665 76.675476 4.263775 77.472954 5.904747 C 78.270439 7.54572 78.669174 9.424376 78.669174 11.54077 C 78.669174 13.197079 78.436577 14.697447 77.971382 16.04192 C 77.50618 17.386393 76.831398 18.534033 75.947014 19.484877 C 75.062622 20.43572 74.001884 21.161623 72.764771 21.662605 C 71.527649 22.163588 70.137184 22.414076 68.593346 22.414076 C 66.497398 22.414076 64.677528 21.946329 63.133686 21.01082 C 61.589844 20.075314 60.416641 18.781981 59.614048 17.130783 C 58.811455 15.479588 58.410164 13.616267 58.410164 11.54077 C 58.410164 9.976478 58.63509 8.532342 59.084949 7.208317 C 59.534813 5.884293 60.189148 4.736652 61.047974 3.76536 C 61.906799 2.794067 62.972649 2.034937 64.24556 1.487946 C 65.518463 0.940956 66.937035 0.667463 68.501328 0.667463 Z M 68.470657 3.029226 C 67.131294 3.029226 65.937645 3.384508 64.889671 4.095085 C 63.841698 4.805662 63.034004 5.807611 62.466564 7.100965 C 61.899124 8.394317 61.61541 9.864013 61.61541 11.510098 C 61.61541 12.726768 61.784107 13.871854 62.121502 14.945387 C 62.458897 16.018921 62.939426 16.936522 63.563095 17.698219 C 64.186768 18.459917 64.920341 19.042685 65.763832 19.446537 C 66.607323 19.850389 67.54026 20.052313 68.562675 20.052313 C 69.564636 20.052313 70.48735 19.847834 71.330841 19.438869 C 72.174332 19.029903 72.910461 18.442024 73.539238 17.675217 C 74.168022 16.908405 74.645996 16.021477 74.973167 15.0144 C 75.300339 14.007323 75.463921 12.88013 75.463921 11.632786 C 75.463921 10.324098 75.300339 9.145785 74.973167 8.097812 C 74.645996 7.049839 74.168022 6.142462 73.539238 5.375652 C 72.910461 4.608841 72.166664 4.026075 71.307838 3.627335 C 70.449013 3.228594 69.503296 3.029226 68.470657 3.029226 Z M 54.714157 1.050867 L 54.714157 3.627335 L 46.049255 3.627335 L 46.049255 9.777117 L 54.085377 9.777117 L 54.085377 12.353583 L 46.049255 12.353583 L 46.049255 19.454205 L 54.959538 19.454205 L 54.959538 22 L 43.058712 22 L 43.058712 1.050867 Z M 37.445694 1.925026 L 37.246323 4.823551 C 36.407948 4.353241 35.56958 4.010738 34.731201 3.796032 C 33.892822 3.581326 32.952217 3.473972 31.909355 3.473972 C 30.253048 3.473972 28.785908 3.808807 27.507891 4.478489 C 26.229876 5.148169 25.240705 6.091331 24.540352 7.308002 C 23.84 8.524673 23.489828 9.894686 23.489828 11.41808 C 23.489828 13.013044 23.845112 14.436733 24.555689 15.689188 C 25.266266 16.941645 26.270771 17.90781 27.569235 18.587715 C 28.867701 19.267618 30.355288 19.607567 32.032043 19.607567 C 32.91132 19.607567 33.857037 19.46443 34.869225 19.178154 L 34.869225 13.105053 L 30.375744 13.105053 L 30.375744 10.574594 L 37.844433 10.574594 L 37.844433 21.187185 C 36.791348 21.534805 35.791954 21.782738 34.846222 21.930988 C 33.90049 22.079237 32.901096 22.15336 31.848011 22.15336 C 30.099686 22.15336 28.514969 21.907986 27.093815 21.417227 C 25.672663 20.92647 24.445786 20.205679 23.413149 19.254835 C 22.38051 18.303991 21.600933 17.16913 21.07439 15.850218 C 20.547848 14.531305 20.28458 13.043717 20.28458 11.387408 C 20.28458 9.209669 20.788111 7.331014 21.795187 5.751387 C 22.802265 4.171759 24.172277 2.972998 25.905268 2.155067 C 27.638256 1.337137 29.578257 0.928179 31.725323 0.928179 C 33.811047 0.928179 35.717815 1.260458 37.445694 1.925026 Z"/>
</svg>
